<svg width="9" height="9" viewBox="0 0 9 9" fill="none" xmlns="http://www.w3.org/2000/svg">
<path d="M4.88492 8.00463C4.64577 7.86513 4.35423 7.86513 4.11508 8.00463L2.59161 8.89327C2.00483 9.23555 1.3027 8.70399 1.43373 8.01668L1.77394 6.23216C1.82735 5.95203 1.73725 5.6631 1.53602 5.4692L0.253992 4.23387C-0.239753 3.75811 0.0284055 2.89797 0.696206 2.81544L2.43012 2.60115C2.70226 2.56752 2.9381 2.38897 3.05289 2.12965L3.78441 0.477214C4.06609 -0.159072 4.93391 -0.159071 5.21559 0.477215L5.9471 2.12965C6.0619 2.38897 6.29774 2.56752 6.56988 2.60115L8.30379 2.81544C8.97159 2.89797 9.23975 3.75811 8.74601 4.23387L7.46398 5.4692C7.26275 5.6631 7.17265 5.95203 7.22606 6.23216L7.56627 8.01668C7.6973 8.70399 6.99517 9.23555 6.40839 8.89327L4.88492 8.00463Z" fill="white"/>
</svg>
